<?xml version="1.0" encoding="UTF-8"?>
<svg width="584px" height="404px" viewBox="0 0 584 404" version="1.1" xmlns="http://www.w3.org/2000/svg" xmlns:xlink="http://www.w3.org/1999/xlink">
    <title>banner</title>
    <defs>
        <filter x="-5.5%" y="-8.2%" width="110.9%" height="116.4%" filterUnits="objectBoundingBox" id="filter-1">
            <feOffset dx="0" dy="0" in="SourceAlpha" result="shadowOffsetOuter1"></feOffset>
            <feGaussianBlur stdDeviation="7.5" in="shadowOffsetOuter1" result="shadowBlurOuter1"></feGaussianBlur>
            <feColorMatrix values="0 0 0 0 0   0 0 0 0 0   0 0 0 0 0  0 0 0 0.119968654 0" type="matrix" in="shadowBlurOuter1" result="shadowMatrixOuter1"></feColorMatrix>
            <feMerge>
                <feMergeNode in="shadowMatrixOuter1"></feMergeNode>
                <feMergeNode in="SourceGraphic"></feMergeNode>
            </feMerge>
        </filter>
        <rect id="path-2" x="0" y="0" width="540" height="360" rx="13.5"></rect>
        <radialGradient cx="50%" cy="50%" fx="50%" fy="50%" r="100.341406%" gradientTransform="translate(0.500000,0.500000),scale(1.000000,0.996598),rotate(90.000000),translate(-0.500000,-0.500000)" id="radialGradient-4">
            <stop stop-color="#FF0044" stop-opacity="0.1" offset="0%"></stop>
            <stop stop-color="#FF0044" stop-opacity="0.2" offset="100%"></stop>
        </radialGradient>
        <radialGradient cx="50%" cy="50%" fx="50%" fy="50%" r="100%" id="radialGradient-5">
            <stop stop-color="#FF0044" stop-opacity="0.1" offset="0%"></stop>
            <stop stop-color="#FF0044" stop-opacity="0.2" offset="100%"></stop>
        </radialGradient>
    </defs>
    <g id="Page-1" stroke="none" stroke-width="1" fill="none" fill-rule="evenodd">
        <g id="banner" filter="url(#filter-1)" transform="translate(22.000000, 22.000000)">
            <mask id="mask-3" fill="white">
                <use xlink:href="#path-2"></use>
            </mask>
            <use id="Window" fill="#FFFFFF" fill-rule="nonzero" xlink:href="#path-2"></use>
            <g id="Main" mask="url(#mask-3)">
                <g transform="translate(134.000000, 112.669903)">
                    <g id="Button" stroke-width="1" fill-rule="evenodd" transform="translate(0.000000, 61.640777)">
                        <rect id="Rectangle" fill="#1A8CFF" fill-rule="nonzero" x="0" y="0" width="134.105263" height="73.6893204" rx="16"></rect>
                        <text id="React" font-family="ArialRoundedMTBold, Arial Rounded MT Bold" font-size="25.6" font-weight="normal" fill="#FFFFFF">
                            <tspan x="30.698136" y="46.2815534">React</tspan>
                        </text>
                    </g>
                    <g id="Beacon" stroke-width="1" fill-rule="evenodd" transform="translate(106.964912, 40.815534)">
                        <ellipse id="Oval" fill="#FF0044" fill-rule="nonzero" cx="24.4263158" cy="24.5097087" rx="11.9736842" ry="12.0145631"></ellipse>
                        <ellipse id="Oval" stroke="#FF0044" stroke-width="0.96" fill="url(#radialGradient-4)" fill-rule="nonzero" cx="23.9473684" cy="24.0291262" rx="23.9473684" ry="24.0291262"></ellipse>
                    </g>
                    <g id="Popover" stroke-width="1" fill-rule="evenodd" transform="translate(217.577329, 62.060488) rotate(90.000000) translate(-217.577329, -62.060488) translate(191.077329, 7.077329)">
                        <g id="Popover-Inner">
                            <rect id="Rectangle" fill="#313131" fill-rule="nonzero" x="0" y="0" width="53" height="102" rx="11.2"></rect>
                            <text id="Hint" transform="translate(26.422671, 51.165049) rotate(-90.000000) translate(-26.422671, -51.165049) " font-family="ArialRoundedMTBold, Arial Rounded MT Bold" font-size="25.6" font-weight="normal" fill="#FFFFFF">
                                <tspan x="0.966420755" y="60.6650485">Hint</tspan>
                            </text>
                        </g>
                        <polygon id="Path" fill="#313131" fill-rule="nonzero" points="27.6842105 109.966317 19.8660333 99.3980583 35.5023877 99.3980583"></polygon>
                    </g>
                    <text id="Beacon" font-family="ArialRoundedMTBold, Arial Rounded MT Bold" font-size="10" font-weight="normal">
                        <tspan x="59.362476" y="9" fill="#313131">Beacon</tspan>
                    </text>
                    <g id="Arrow" stroke-width="1" fill-rule="evenodd" transform="translate(112.556935, 22.454858) scale(-1, 1) rotate(16.000000) translate(-112.556935, -22.454858) translate(97.695334, 8.541178)">
                        <path d="M19.1097866,0.917853476 C19.4084696,0.927774508 19.6630903,0.938435466 19.8812219,0.949834122 C20.0993535,0.961233892 20.2808812,0.973372475 20.4331487,0.98624987 C20.5853015,0.999128378 20.7081942,1.01274459 20.8090557,1.02710072 C20.9100319,1.04145685 20.9888622,1.0565518 21.0528903,1.07238555 C21.1170331,1.08822043 21.1663738,1.104793 21.208256,1.12210549 C21.2502529,1.13941799 21.2846766,1.15746929 21.3188708,1.17626053 C21.3663755,1.23082899 21.4122738,1.28590336 21.4564509,1.34148588 C21.500628,1.3970684 21.5433134,1.45315794 21.5842776,1.50975117 C21.6252418,1.56634886 21.6645996,1.62345915 21.702351,1.68107089 C21.7401023,1.73867149 21.7761324,1.79679583 21.8106709,1.85542163 C21.8452094,1.91404743 21.8780266,1.97317468 21.9093522,2.03281454 C21.940563,2.09245439 21.9701674,2.15260685 21.9981654,2.21326076 C22.0262781,2.27391467 22.0526696,2.33507003 22.0774547,2.396738 C22.1022397,2.45840597 22.1253036,2.52057539 22.1468758,2.58325741 C22.168448,2.64593943 22.188299,2.70913405 22.2066583,2.77283013 C22.2249029,2.83652621 22.2416558,2.90073489 22.2566874,2.96544502 C22.2717191,3.03015515 22.2851444,3.09536674 22.2969632,3.16109093 C22.308782,3.22681512 22.3189944,3.29305191 22.3274855,3.35979016 C22.3360915,3.4265284 22.343091,3.49377925 22.3483693,3.56153155 C22.3537623,3.62928385 22.3574342,3.69753761 22.3594996,3.76630396 C22.3616009,3.83507032 22.3621387,3.90434928 22.3609913,3.97412969 C22.3598438,4.0439101 22.3570899,4.11420312 22.3526148,4.18499758 C22.2259356,4.38539062 22.1009775,4.58639654 21.9779701,4.78800421 C21.8549627,4.98961188 21.7337913,5.19182129 21.6144557,5.3946436 C21.4951202,5.59746591 21.3777354,5.80088996 21.2621864,6.00491577 C21.1465228,6.20895271 21.0328098,6.41359141 20.9210475,6.61884299 C20.8091704,6.82408343 20.699244,7.02993676 20.5911536,7.23640299 C20.4829484,7.44285807 20.3768086,7.64992604 20.27239,7.85759575 C20.1679714,8.06526547 20.0655035,8.27354808 19.9648715,8.48243244 C19.8642396,8.69131679 19.7654435,8.90081404 19.6684834,9.11091303 C19.571638,9.32101203 19.4765138,9.53172391 19.3833403,9.74303754 C19.2901668,9.95435118 19.1988292,10.1662666 19.1094423,10.3787948 C19.0199407,10.5913231 18.9323897,10.8044531 18.8466747,11.018196 C18.7609596,11.2319389 18.6770805,11.4462836 18.5950374,11.6612634 C18.5131089,11.876221 18.4330164,12.0917357 18.354714,12.307919 C18.2764574,12.5241024 18.2000712,12.7408429 18.1255438,12.958252 C18.0510165,13.1756611 17.9783595,13.3936274 17.9075614,13.6122623 C17.8367748,13.8307857 17.7678471,14.0499778 17.7007897,14.2698385 C17.6293605,14.198966 17.560536,14.127202 17.4943048,14.0545466 C17.4280736,13.9818912 17.3644356,13.9083443 17.3033909,13.8340173 C17.2423462,13.7596904 17.1838947,13.6844719 17.1280365,13.608362 C17.0721898,13.5322521 17.0189248,13.4552508 16.9682531,13.3774693 C16.9175929,13.2996879 16.8695259,13.2209036 16.8240407,13.1414506 C16.778567,13.0618862 16.7356865,12.9814304 16.6953878,12.9001945 C16.6551006,12.8188471 16.6174067,12.7367198 16.5823059,12.6537009 C16.5472167,12.5706821 16.5147093,12.4868832 16.4847951,12.4020813 C16.4548808,12.317391 16.4275714,12.2318091 16.4028437,12.1453358 C16.3781274,12.0588625 16.355993,11.9714976 16.3364633,11.8833528 C16.3169336,11.7950965 16.2999971,11.7060602 16.2856539,11.6161324 C16.2713107,11.5262046 16.2595607,11.4354187 16.250404,11.3437637 C16.2412473,11.2521086 16.2346953,11.1595955 16.2307251,11.0662132 C16.2267664,10.9728421 16.2253894,10.8785906 16.2266172,10.7834922 C16.227845,10.6883827 16.231666,10.592404 16.2380803,10.4955673 C16.2444946,10.3987416 16.2535021,10.3010357 16.2651029,10.2024717 L16.3117241,10.0222929 L16.3583453,9.84211414 L16.4070204,9.66268198 L16.455707,9.48323867 L16.5064476,9.30453083 L16.5571881,9.12583414 L16.6099941,8.94786177 L16.6627886,8.76990055 L16.71766,8.59266365 L16.7725199,8.41543789 L16.8294567,8.23893646 L16.8863821,8.06244617 L16.9453728,7.88669136 L17.0043751,7.71092539 L17.0654313,7.53590605 L17.1264874,7.3608867 L17.1193044,7.35044527 L17.1121328,7.33999269 L17.1049497,7.32955126 L17.0977781,7.31909868 L17.090595,7.30865725 L17.0834119,7.29820467 L17.0762403,7.28776324 L17.0690572,7.27731067 L17.0618856,7.26686924 L17.0547025,7.25641666 L17.0475194,7.24597523 L17.0403478,7.23552265 L17.0331648,7.22508122 L17.0259817,7.21462865 L17.0188101,7.20418721 L17.011627,7.19373464 C16.9259349,7.24784733 16.8410346,7.3027735 16.7569374,7.35853542 C16.6728288,7.41429735 16.5895235,7.47088389 16.5070098,7.52829506 C16.4244962,7.58571736 16.3427743,7.64395314 16.2618556,7.70301353 C16.1809255,7.76208507 16.1007986,7.82197008 16.0214634,7.88269085 C15.9421282,7.94341162 15.8635848,8.00495701 15.7858331,8.06732701 C15.7080929,8.12969702 15.6311329,8.19289164 15.5549762,8.25691088 C15.4788195,8.32093012 15.4034545,8.38577397 15.3288813,8.45145359 C15.2543195,8.51712206 15.180538,8.58362629 15.1075598,8.65095514 C15.0345815,8.71827285 14.962395,8.78642631 14.8910002,8.8554044 C14.8196054,8.92438248 14.7490024,8.99418518 14.6792026,9.0648125 C14.6094028,9.13545096 14.5403832,9.20690289 14.4721669,9.27917944 C14.4039506,9.35146713 14.3365375,9.4245683 14.2699047,9.49850523 C14.2032718,9.57244215 14.1374422,9.64719255 14.0724044,9.72277872 C14.0073665,9.79836488 13.9431204,9.87477565 13.879666,9.95201105 C13.8162116,10.0292464 13.753549,10.1073176 13.6916896,10.1862022 C13.6298302,10.2650869 13.5687511,10.3448072 13.5084751,10.4253411 C13.2579853,10.7346616 13.0199453,11.0458318 12.7943323,11.3588631 C12.5687193,11.6718497 12.3555562,11.9867642 12.1548316,12.3034616 C11.9540954,12.6202705 11.7658092,12.9387509 11.5899614,13.2592371 C11.4141136,13.5796119 11.2506928,13.9018811 11.0997334,14.2260446 C10.9487625,14.5502082 10.81023,14.8761547 10.6841359,15.2039956 C10.5580419,15.5318365 10.4443977,15.8615718 10.3431805,16.19309 C10.2419748,16.5246083 10.1532076,16.8580209 10.0768787,17.1932165 C10.0005384,17.5285236 9.93664799,17.8656135 9.88519602,18.2044865 C9.83375552,18.5434709 9.79474198,18.8842382 9.76816688,19.2268999 C9.74160325,19.5695616 9.72746658,19.9141177 9.72577981,20.2604568 C9.72409305,20.6067959 9.73484473,20.9550293 9.75803483,21.3050457 C9.78122494,21.6550621 9.81685348,22.0069729 9.86493193,22.3607781 C9.9129989,22.7145833 9.97351578,23.0701715 10.0464711,23.427654 C10.1194264,23.7851365 10.2048202,24.144402 10.3026524,24.5055619 C10.4004845,24.8667218 10.5107552,25.2297761 10.6334757,25.5946133 C10.7561962,25.9594505 10.8913437,26.3261821 11.0389411,26.6948081 C11.0278567,26.7084032 11.0165657,26.7213296 11.0050682,26.7335874 C10.9935706,26.7458452 10.9818781,26.7575459 10.9699675,26.7685779 C10.9580683,26.77961 10.9459512,26.7899734 10.933639,26.7997796 C10.9213268,26.8095859 10.908808,26.8187235 10.8960827,26.8271926 C10.8833689,26.835773 10.870437,26.8436849 10.8573101,26.8509282 C10.8441717,26.8581714 10.8308383,26.8647461 10.8172983,26.8707635 C10.8037583,26.876781 10.7900118,26.8821299 10.7760702,26.8869216 C10.7621171,26.8916018 10.7479689,26.8957249 10.7336143,26.8991794 C10.7192481,26.9027453 10.7046869,26.9055312 10.6899191,26.9077599 C10.6751628,26.9099886 10.6601885,26.9116601 10.6450076,26.9125516 C10.6298382,26.9136798 10.6144623,26.9136798 10.5988684,26.9136798 C10.5832859,26.9133316 10.5674969,26.9123287 10.5515128,26.9107686 C10.5355173,26.9092085 10.5193152,26.9070913 10.502918,26.9043054 C10.4865209,26.9014081 10.4699057,26.8979536 10.4530954,26.893942 C10.4362967,26.8898189 10.4192799,26.8851386 10.4020566,26.8797898 C10.3848332,26.8745523 10.3674148,26.8685348 10.3497899,26.8619602 C10.2679762,26.7949879 10.1880558,26.7267899 10.1100402,26.6575889 C10.0320246,26.588388 9.95590232,26.5180727 9.8816848,26.4465316 C9.80745581,26.375102 9.73513159,26.302558 9.66470068,26.2288996 C9.59426977,26.1552413 9.52574363,26.0804686 9.4591108,26.0045816 C9.39247798,25.928806 9.32774992,25.8518046 9.2649037,25.7736889 C9.20206896,25.6955731 9.14112752,25.6164545 9.08209085,25.5361101 C9.02305419,25.4557656 8.96591083,25.3744183 8.91066077,25.2918452 C8.85542219,25.2093835 8.80206544,25.125696 8.75062494,25.0410057 C8.69917297,24.9562039 8.64962578,24.8703991 8.60197189,24.7834801 C8.554318,24.6964496 8.50856889,24.6084161 8.46471308,24.5192684 C8.42085727,24.4301206 8.37889477,24.3398585 8.33883704,24.248482 C8.29877932,24.1571056 8.26062637,24.0646148 8.22435526,23.9710096 C8.18809562,23.8774045 8.15374075,23.782685 8.12126772,23.6868511 C8.08880616,23.5910173 8.05824364,23.4940691 8.02957787,23.396118 C8.0009121,23.2980554 7.97414422,23.1988786 7.94927653,23.0986988 C7.92440885,22.9984075 7.90143905,22.8971134 7.88036945,22.7945934 C7.82737873,22.565818 7.77844772,22.3372654 7.73357642,22.1088243 C7.68870511,21.8804945 7.64789351,21.6523877 7.61114161,21.4245037 C7.5743897,21.1966198 7.54169636,20.9688472 7.51306386,20.741409 C7.48443022,20.5139708 7.45985743,20.2867554 7.43934319,20.0597629 C7.4188301,19.8327704 7.40237557,19.6060008 7.38998189,19.379454 C7.37758706,19.1529073 7.36925193,18.9265834 7.36497765,18.7004824 C7.36070223,18.4743813 7.3604865,18.2485032 7.36433163,18.0228479 C7.36817561,17.7971926 7.37608045,17.5718717 7.38804383,17.3466621 C7.40000837,17.1214526 7.41603146,16.8964659 7.4361154,16.6717021 C7.45619819,16.4470497 7.48034183,16.2225088 7.50854518,15.9981907 C7.53674738,15.7738727 7.56901043,15.5498889 7.60533318,15.3260166 C7.64165593,15.1021443 7.68203838,14.8786062 7.72648169,14.6551797 C7.77092385,14.4317531 7.81942571,14.2086608 7.87198842,13.98568 C7.92455113,13.7628105 7.9811724,13.5400526 8.04185451,13.3176289 C8.10254122,13.0950938 8.16728075,12.872893 8.23608227,12.6508036 C8.30488379,12.4288257 8.37774731,12.2069592 8.45466136,11.985427 C8.49474203,11.8959449 8.53560297,11.80702 8.57724419,11.7185409 C8.61889688,11.6300617 8.66131836,11.5421397 8.70454307,11.4547415 C8.7477563,11.367321 8.7917498,11.2804242 8.83654652,11.1940288 C8.88133177,11.1076447 8.92689729,11.0217619 8.97325455,10.936403 C9.01961182,10.8510328 9.06676083,10.7661864 9.11469011,10.6818527 C9.16261939,10.5975189 9.21132894,10.5136977 9.26083023,10.4303891 C9.31033153,10.3470805 9.36061309,10.2642845 9.41168641,10.1820011 C9.46275972,10.0997178 9.5146133,10.0179581 9.56725863,9.93669992 C9.61990396,9.85544173 9.67332955,9.77470729 9.7275469,9.69448544 C9.78175277,9.61425246 9.83676186,9.53454321 9.89253974,9.45534656 C9.9483291,9.37614992 10.0048987,9.29745473 10.0622601,9.21928328 C10.1196215,9.14111184 10.1777631,9.06345299 10.2366851,8.98630675 C10.2956184,8.90917164 10.3553321,8.83253799 10.4158375,8.75641695 C10.4763429,8.6802959 10.5376286,8.6046986 10.5996946,8.52960275 C10.661772,8.4545069 10.7246297,8.37993479 10.7882791,8.30586414 C10.8519286,8.23180464 10.9163583,8.15824659 10.9815682,8.08521228 L11.241582,7.84510392 L11.5015958,7.60498442 L11.7615981,7.36486492 L12.0216118,7.12475656 L12.2829566,6.8868546 L12.5443129,6.64895265 L12.8056577,6.4110507 L13.067014,6.17314874 L13.3297013,5.9374532 L13.5923887,5.70175765 L13.8550875,5.46607325 L14.1177748,5.2303777 L14.3818047,4.99688856 L14.6458231,4.76339942 L14.9098529,4.52992143 L15.1738828,4.29643229 L15.0812715,4.27998453 L14.9886488,4.26354791 L14.895831,4.24881624 L14.8030132,4.23408457 L14.7099889,4.221069 L14.616976,4.20805342 L14.5237451,4.1967428 L14.4305257,4.18544332 L14.3370998,4.17584879 L14.2436738,4.16626541 L14.1500413,4.15838698 L14.0564203,4.15050854 L13.9625927,4.1443462 L13.8687652,4.13818386 L13.7747311,4.13372648 L13.6807084,4.12928023 C13.6507942,4.1188388 13.6214882,4.10780676 13.5927673,4.09619527 C13.5640465,4.08459491 13.5359338,4.07240396 13.5084178,4.05963354 C13.4809018,4.04686312 13.4539709,4.03352439 13.4276483,4.01959505 C13.4013256,4.00566571 13.3756111,3.99115691 13.3504818,3.97606865 C13.3253525,3.96096925 13.3008313,3.94530153 13.2768954,3.92905435 C13.2529709,3.91280717 13.2296431,3.89596939 13.206912,3.87856329 C13.1841808,3.86114604 13.1620464,3.84316048 13.1405086,3.82458432 C13.1189709,3.80601929 13.0980412,3.78686367 13.0776968,3.76712858 C13.0573639,3.74739349 13.0376162,3.72709009 13.0184766,3.70619608 C12.999337,3.68530208 12.9807941,3.66382861 12.9628479,3.64176454 C12.9449016,3.61971161 12.9275521,3.59707922 12.9108107,3.57386737 C12.8940578,3.55064438 12.8779131,3.52685307 12.8623536,3.50247115 C12.8468055,3.47810038 12.8318542,3.45313901 12.8174995,3.42760932 C12.8031448,3.40206848 12.7893868,3.37594819 12.7762254,3.34924843 C12.7630756,3.32254868 12.7505109,3.29526946 12.7385544,3.26741079 C12.7265865,3.23955211 12.7152266,3.21110283 12.7044635,3.18208523 C12.690476,3.15332393 12.6768327,3.12448463 12.6635452,3.09554504 C12.6502461,3.06661659 12.6373143,3.03758785 12.6247152,3.00846996 C12.6121276,2.97936322 12.5998957,2.95015618 12.5880081,2.92086 C12.5761204,2.89157495 12.564577,2.86218962 12.5533893,2.83271514 C12.5422016,2.80325181 12.5313696,2.77368818 12.5208818,2.74404655 C12.5104056,2.71439377 12.5002735,2.68466299 12.4904857,2.65483192 C12.4806979,2.62500085 12.4712658,2.59509178 12.4621894,2.56508241 C12.453113,2.53508419 12.4443809,2.50498567 12.4360044,2.47480916 C12.427628,2.44463264 12.4195958,2.41435583 12.4119193,2.38400101 C12.4042428,2.35363506 12.3969221,2.32319109 12.3899455,2.29265799 C12.3829805,2.26212488 12.3763482,2.23149148 12.370083,2.20078007 C12.3638179,2.17006867 12.357897,2.13926811 12.3523319,2.10837841 C12.3467552,2.07747757 12.3415458,2.04649872 12.3366806,2.01543072 C12.3318153,1.98436273 12.3273058,1.95320558 12.3231406,1.92197044 C12.3189753,1.89072415 12.3151657,1.85938871 12.3117119,1.82796412 C12.3082581,1.79653953 12.3051484,1.76503694 12.3023945,1.73343406 L12.759943,1.69884473 L13.2174915,1.66425539 L13.6735254,1.62363744 L14.1295707,1.58301949 L14.5840899,1.53636178 L15.0386205,1.48970407 L15.4916366,1.43700437 L15.9446526,1.38430912 L16.396154,1.32557635 L16.8476554,1.26684246 L17.2976421,1.20206992 L17.7476403,1.13729627 L18.1961239,1.06648286 L18.6446075,0.995668331 L19.091542,0.918812929 C19.091542,0.918812929 18.8112183,0.907932444 19.1097866,0.917853476 Z" id="Path" fill="#313131" transform="translate(14.861601, 13.913680) scale(-1, 1) rotate(128.000000) translate(-14.861601, -13.913680) "></path>
                    </g>
                </g>
            </g>
            <g id="Logo" mask="url(#mask-3)" fill-rule="nonzero">
                <g transform="translate(16.000000, 294.000000)" id="Oval">
                    <circle stroke="none" fill="#FF0044" cx="25.5" cy="25.5" r="12.5"></circle>
                    <circle stroke="#FF0044" stroke-width="1" fill="url(#radialGradient-5)" cx="25" cy="25" r="25"></circle>
                </g>
            </g>
            <g id="Navbar" mask="url(#mask-3)">
                <rect id="Rectangle" fill-opacity="0.9" fill="#F1F1F1" fill-rule="nonzero" x="0" y="0" width="540" height="53"></rect>
                <g id="Group" transform="translate(87.000000, 9.000000)">
                    <rect id="Rectangle" fill="#FFFFFF" fill-rule="nonzero" x="0" y="0" width="240" height="35" rx="6.75"></rect>
                    <text id="User-Onboarding-Comp" font-family="ArialRoundedMTBold, Arial Rounded MT Bold" font-size="14" font-weight="normal" fill="#211E1E">
                        <tspan x="14.4661404" y="22.7222222">User Onboarding Component</tspan>
                    </text>
                </g>
                <circle id="Oval" fill="#FF6159" fill-rule="nonzero" cx="24.5" cy="26.5" r="6.5"></circle>
                <circle id="Oval" fill="#FFBD2E" fill-rule="nonzero" cx="44.5" cy="26.5" r="6.5"></circle>
                <circle id="Oval" fill="#28CA42" fill-rule="nonzero" cx="64.5" cy="26.5" r="6.5"></circle>
            </g>
        </g>
    </g>
</svg>